<svg viewBox="0 0 96 96" xmlns="http://www.w3.org/2000/svg">
  <g transform="rotate(-6 48 70)">
    <g transform="translate(16,4) scale(2.7)" shape-rendering="crispEdges">
<rect x="6" y="1" width="1" height="1" fill="#12120f"/>
<rect x="6" y="2" width="2" height="1" fill="#12120f"/>
<rect x="6" y="3" width="1" height="1" fill="#12120f"/>
<rect x="7" y="3" width="1" height="1" fill="#eaffdd"/>
<rect x="8" y="3" width="1" height="1" fill="#12120f"/>
<rect x="6" y="4" width="1" height="1" fill="#12120f"/>
<rect x="7" y="4" width="2" height="1" fill="#eaffdd"/>
<rect x="9" y="4" width="1" height="1" fill="#12120f"/>
<rect x="6" y="5" width="1" height="1" fill="#12120f"/>
<rect x="7" y="5" width="2" height="1" fill="#8dff5a"/>
<rect x="9" y="5" width="1" height="1" fill="#eaffdd"/>
<rect x="10" y="5" width="1" height="1" fill="#12120f"/>
<rect x="6" y="6" width="1" height="1" fill="#12120f"/>
<rect x="7" y="6" width="1" height="1" fill="#7ce04f"/>
<rect x="8" y="6" width="1" height="1" fill="#2ce000"/>
<rect x="9" y="6" width="1" height="1" fill="#7ce04f"/>
<rect x="10" y="6" width="1" height="1" fill="#eaffdd"/>
<rect x="11" y="6" width="1" height="1" fill="#12120f"/>
<rect x="6" y="7" width="1" height="1" fill="#12120f"/>
<rect x="7" y="7" width="1" height="1" fill="#8dff5a"/>
<rect x="8" y="7" width="2" height="1" fill="#33ff00"/>
<rect x="10" y="7" width="1" height="1" fill="#8dff5a"/>
<rect x="11" y="7" width="1" height="1" fill="#eaffdd"/>
<rect x="12" y="7" width="1" height="1" fill="#12120f"/>
<rect x="6" y="8" width="1" height="1" fill="#12120f"/>
<rect x="7" y="8" width="1" height="1" fill="#7ce04f"/>
<rect x="8" y="8" width="3" height="1" fill="#2ce000"/>
<rect x="11" y="8" width="1" height="1" fill="#7ce04f"/>
<rect x="12" y="8" width="1" height="1" fill="#eaffdd"/>
<rect x="13" y="8" width="1" height="1" fill="#12120f"/>
<rect x="6" y="9" width="1" height="1" fill="#12120f"/>
<rect x="7" y="9" width="1" height="1" fill="#8dff5a"/>
<rect x="8" y="9" width="4" height="1" fill="#33ff00"/>
<rect x="12" y="9" width="1" height="1" fill="#8dff5a"/>
<rect x="13" y="9" width="1" height="1" fill="#eaffdd"/>
<rect x="14" y="9" width="1" height="1" fill="#12120f"/>
<rect x="6" y="10" width="1" height="1" fill="#12120f"/>
<rect x="7" y="10" width="1" height="1" fill="#7ce04f"/>
<rect x="8" y="10" width="5" height="1" fill="#2ce000"/>
<rect x="13" y="10" width="1" height="1" fill="#7ce04f"/>
<rect x="14" y="10" width="1" height="1" fill="#eaffdd"/>
<rect x="15" y="10" width="1" height="1" fill="#12120f"/>
<rect x="6" y="11" width="1" height="1" fill="#12120f"/>
<rect x="7" y="11" width="1" height="1" fill="#8dff5a"/>
<rect x="8" y="11" width="1" height="1" fill="#33ff00"/>
<rect x="9" y="11" width="1" height="1" fill="#eaffdd"/>
<rect x="10" y="11" width="1" height="1" fill="#12120f"/>
<rect x="11" y="11" width="2" height="1" fill="#33ff00"/>
<rect x="13" y="11" width="1" height="1" fill="#eaffdd"/>
<rect x="14" y="11" width="1" height="1" fill="#12120f"/>
<rect x="15" y="11" width="1" height="1" fill="#33ff00"/>
<rect x="16" y="11" width="1" height="1" fill="#12120f"/>
<rect x="6" y="12" width="1" height="1" fill="#12120f"/>
<rect x="7" y="12" width="1" height="1" fill="#7ce04f"/>
<rect x="8" y="12" width="1" height="1" fill="#2ce000"/>
<rect x="9" y="12" width="2" height="1" fill="#12120f"/>
<rect x="11" y="12" width="2" height="1" fill="#2ce000"/>
<rect x="13" y="12" width="2" height="1" fill="#12120f"/>
<rect x="15" y="12" width="1" height="1" fill="#2ce000"/>
<rect x="16" y="12" width="1" height="1" fill="#1b9900"/>
<rect x="17" y="12" width="1" height="1" fill="#12120f"/>
<rect x="6" y="13" width="1" height="1" fill="#12120f"/>
<rect x="7" y="13" width="1" height="1" fill="#8dff5a"/>
<rect x="8" y="13" width="1" height="1" fill="#33ff00"/>
<rect x="9" y="13" width="2" height="1" fill="#12120f"/>
<rect x="11" y="13" width="2" height="1" fill="#33ff00"/>
<rect x="13" y="13" width="2" height="1" fill="#12120f"/>
<rect x="15" y="13" width="1" height="1" fill="#33ff00"/>
<rect x="16" y="13" width="1" height="1" fill="#1fae00"/>
<rect x="17" y="13" width="1" height="1" fill="#12120f"/>
<rect x="6" y="14" width="1" height="1" fill="#12120f"/>
<rect x="7" y="14" width="1" height="1" fill="#7ce04f"/>
<rect x="8" y="14" width="1" height="1" fill="#ffb000"/>
<rect x="9" y="14" width="5" height="1" fill="#2ce000"/>
<rect x="14" y="14" width="1" height="1" fill="#ffb000"/>
<rect x="15" y="14" width="1" height="1" fill="#2ce000"/>
<rect x="16" y="14" width="1" height="1" fill="#1b9900"/>
<rect x="17" y="14" width="1" height="1" fill="#12120f"/>
<rect x="6" y="15" width="1" height="1" fill="#12120f"/>
<rect x="7" y="15" width="1" height="1" fill="#8dff5a"/>
<rect x="8" y="15" width="5" height="1" fill="#33ff00"/>
<rect x="13" y="15" width="1" height="1" fill="#12120f"/>
<rect x="14" y="15" width="2" height="1" fill="#33ff00"/>
<rect x="16" y="15" width="1" height="1" fill="#1fae00"/>
<rect x="17" y="15" width="1" height="1" fill="#12120f"/>
<rect x="6" y="16" width="1" height="1" fill="#12120f"/>
<rect x="7" y="16" width="1" height="1" fill="#7ce04f"/>
<rect x="8" y="16" width="1" height="1" fill="#2ce000"/>
<rect x="9" y="16" width="4" height="1" fill="#12120f"/>
<rect x="13" y="16" width="3" height="1" fill="#2ce000"/>
<rect x="16" y="16" width="1" height="1" fill="#1b9900"/>
<rect x="17" y="16" width="1" height="1" fill="#12120f"/>
<rect x="6" y="17" width="1" height="1" fill="#12120f"/>
<rect x="7" y="17" width="1" height="1" fill="#8dff5a"/>
<rect x="8" y="17" width="7" height="1" fill="#33ff00"/>
<rect x="15" y="17" width="2" height="1" fill="#1fae00"/>
<rect x="17" y="17" width="1" height="1" fill="#12120f"/>
<rect x="6" y="18" width="1" height="1" fill="#12120f"/>
<rect x="7" y="18" width="1" height="1" fill="#7ce04f"/>
<rect x="8" y="18" width="1" height="1" fill="#2ce000"/>
<rect x="9" y="18" width="1" height="1" fill="#1b9900"/>
<rect x="10" y="18" width="1" height="1" fill="#2ce000"/>
<rect x="11" y="18" width="1" height="1" fill="#1b9900"/>
<rect x="12" y="18" width="1" height="1" fill="#2ce000"/>
<rect x="13" y="18" width="1" height="1" fill="#1b9900"/>
<rect x="14" y="18" width="1" height="1" fill="#2ce000"/>
<rect x="15" y="18" width="1" height="1" fill="#1b9900"/>
<rect x="16" y="18" width="1" height="1" fill="#0f7516"/>
<rect x="17" y="18" width="1" height="1" fill="#12120f"/>
<rect x="6" y="19" width="1" height="1" fill="#12120f"/>
<rect x="7" y="19" width="1" height="1" fill="#33ff00"/>
<rect x="8" y="19" width="7" height="1" fill="#1fae00"/>
<rect x="15" y="19" width="2" height="1" fill="#12851a"/>
<rect x="17" y="19" width="1" height="1" fill="#12120f"/>
<rect x="6" y="20" width="12" height="1" fill="#12120f"/>
<rect x="8" y="21" width="3" height="1" fill="#12120f"/>
<rect x="14" y="21" width="3" height="1" fill="#12120f"/>
<rect x="8" y="22" width="3" height="1" fill="#12120f"/>
<rect x="14" y="22" width="3" height="1" fill="#12120f"/>

</g>
    <path d="M14 68 Q20 78 30 78 L66 78 Q76 78 82 68" stroke="#ffb000" stroke-width="7" stroke-linecap="round" fill="none"/>
    <circle cx="34" cy="89" r="6" fill="#ff3333"/>
    <circle cx="62" cy="89" r="6" fill="#ff3333"/>
  </g>
</svg>