<svg viewBox="0 0 96 96" xmlns="http://www.w3.org/2000/svg">
  <g transform="rotate(-6 48 70)">
    <g transform="translate(27.6,22.2) scale(3.4)" shape-rendering="crispEdges">
      <rect x="2" y="0" width="8" height="11" fill="#1a1a1a"/>
      <rect x="3" y="1" width="6" height="9" fill="#33ff00"/>
      <rect x="4" y="2" width="1" height="1" fill="#ccffcc" opacity="0.7"/>
      <rect x="4" y="3" width="1" height="2" fill="#1a1a1a"/>
      <rect x="7" y="3" width="1" height="2" fill="#1a1a1a"/>
      <rect x="5" y="7" width="2" height="1" fill="#1a1a1a"/>
      <rect x="7" y="6" width="1" height="1" fill="#1a1a1a"/>
      <rect x="3" y="11" width="2" height="1" fill="#1a1a1a"/>
      <rect x="7" y="11" width="2" height="1" fill="#1a1a1a"/>
    </g>
    <path d="M14 64 Q20 74 30 74 L66 74 Q76 74 82 64" stroke="#ffb000" stroke-width="7" stroke-linecap="round" fill="none"/>
    <circle cx="34" cy="85" r="6" fill="#ff3333"/>
    <circle cx="62" cy="85" r="6" fill="#ff3333"/>
  </g>
</svg>
