<svg viewBox="0 0 24 24" xmlns="http://www.w3.org/2000/svg" shape-rendering="crispEdges">
<rect x="15" y="1" width="1" height="1" fill="#12120f"/>
<rect x="16" y="1" width="2" height="1" fill="#ff3333"/>
<rect x="18" y="1" width="1" height="1" fill="#12120f"/>
<rect x="15" y="2" width="1" height="1" fill="#12120f"/>
<rect x="16" y="2" width="2" height="1" fill="#ff3333"/>
<rect x="18" y="2" width="1" height="1" fill="#12120f"/>
<rect x="16" y="3" width="2" height="1" fill="#12120f"/>
<rect x="16" y="4" width="2" height="1" fill="#12120f"/>
<rect x="4" y="5" width="14" height="1" fill="#12120f"/>
<rect x="3" y="6" width="1" height="1" fill="#12120f"/>
<rect x="4" y="6" width="13" height="1" fill="#fff8e8"/>
<rect x="17" y="6" width="1" height="1" fill="#f2e2c4"/>
<rect x="18" y="6" width="1" height="1" fill="#12120f"/>
<rect x="3" y="7" width="1" height="1" fill="#12120f"/>
<rect x="4" y="7" width="1" height="1" fill="#fff8e8"/>
<rect x="5" y="7" width="12" height="1" fill="#f2e2c4"/>
<rect x="17" y="7" width="1" height="1" fill="#cdb894"/>
<rect x="18" y="7" width="1" height="1" fill="#12120f"/>
<rect x="3" y="8" width="1" height="1" fill="#12120f"/>
<rect x="4" y="8" width="1" height="1" fill="#fff8e8"/>
<rect x="5" y="8" width="1" height="1" fill="#f2e2c4"/>
<rect x="6" y="8" width="10" height="1" fill="#12120f"/>
<rect x="16" y="8" width="1" height="1" fill="#f2e2c4"/>
<rect x="17" y="8" width="1" height="1" fill="#cdb894"/>
<rect x="18" y="8" width="1" height="1" fill="#12120f"/>
<rect x="3" y="9" width="1" height="1" fill="#12120f"/>
<rect x="4" y="9" width="1" height="1" fill="#fff8e8"/>
<rect x="5" y="9" width="1" height="1" fill="#f2e2c4"/>
<rect x="6" y="9" width="1" height="1" fill="#12120f"/>
<rect x="7" y="9" width="8" height="1" fill="#181815"/>
<rect x="15" y="9" width="1" height="1" fill="#12120f"/>
<rect x="16" y="9" width="1" height="1" fill="#f2e2c4"/>
<rect x="17" y="9" width="1" height="1" fill="#cdb894"/>
<rect x="18" y="9" width="1" height="1" fill="#12120f"/>
<rect x="3" y="10" width="1" height="1" fill="#12120f"/>
<rect x="4" y="10" width="1" height="1" fill="#fff8e8"/>
<rect x="5" y="10" width="1" height="1" fill="#f2e2c4"/>
<rect x="6" y="10" width="1" height="1" fill="#12120f"/>
<rect x="7" y="10" width="1" height="1" fill="#0d0d0c"/>
<rect x="8" y="10" width="1" height="1" fill="#7fd8cc"/>
<rect x="9" y="10" width="4" height="1" fill="#0d0d0c"/>
<rect x="13" y="10" width="1" height="1" fill="#7fd8cc"/>
<rect x="14" y="10" width="1" height="1" fill="#0d0d0c"/>
<rect x="15" y="10" width="1" height="1" fill="#12120f"/>
<rect x="16" y="10" width="1" height="1" fill="#f2e2c4"/>
<rect x="17" y="10" width="1" height="1" fill="#cdb894"/>
<rect x="18" y="10" width="1" height="1" fill="#12120f"/>
<rect x="3" y="11" width="1" height="1" fill="#12120f"/>
<rect x="4" y="11" width="1" height="1" fill="#fff8e8"/>
<rect x="5" y="11" width="1" height="1" fill="#f2e2c4"/>
<rect x="6" y="11" width="1" height="1" fill="#12120f"/>
<rect x="7" y="11" width="1" height="1" fill="#181815"/>
<rect x="8" y="11" width="1" height="1" fill="#7fd8cc"/>
<rect x="9" y="11" width="4" height="1" fill="#181815"/>
<rect x="13" y="11" width="1" height="1" fill="#7fd8cc"/>
<rect x="14" y="11" width="1" height="1" fill="#181815"/>
<rect x="15" y="11" width="1" height="1" fill="#12120f"/>
<rect x="16" y="11" width="1" height="1" fill="#f2e2c4"/>
<rect x="17" y="11" width="1" height="1" fill="#cdb894"/>
<rect x="18" y="11" width="1" height="1" fill="#12120f"/>
<rect x="3" y="12" width="1" height="1" fill="#12120f"/>
<rect x="4" y="12" width="1" height="1" fill="#fff8e8"/>
<rect x="5" y="12" width="1" height="1" fill="#f2e2c4"/>
<rect x="6" y="12" width="1" height="1" fill="#12120f"/>
<rect x="7" y="12" width="8" height="1" fill="#0d0d0c"/>
<rect x="15" y="12" width="1" height="1" fill="#12120f"/>
<rect x="16" y="12" width="1" height="1" fill="#f2e2c4"/>
<rect x="17" y="12" width="1" height="1" fill="#cdb894"/>
<rect x="18" y="12" width="1" height="1" fill="#12120f"/>
<rect x="3" y="13" width="1" height="1" fill="#12120f"/>
<rect x="4" y="13" width="1" height="1" fill="#fff8e8"/>
<rect x="5" y="13" width="1" height="1" fill="#f2e2c4"/>
<rect x="6" y="13" width="1" height="1" fill="#12120f"/>
<rect x="7" y="13" width="1" height="1" fill="#181815"/>
<rect x="8" y="13" width="1" height="1" fill="#7fd8cc"/>
<rect x="9" y="13" width="4" height="1" fill="#181815"/>
<rect x="13" y="13" width="1" height="1" fill="#7fd8cc"/>
<rect x="14" y="13" width="1" height="1" fill="#181815"/>
<rect x="15" y="13" width="1" height="1" fill="#12120f"/>
<rect x="16" y="13" width="1" height="1" fill="#f2e2c4"/>
<rect x="17" y="13" width="1" height="1" fill="#cdb894"/>
<rect x="18" y="13" width="1" height="1" fill="#12120f"/>
<rect x="3" y="14" width="1" height="1" fill="#12120f"/>
<rect x="4" y="14" width="1" height="1" fill="#fff8e8"/>
<rect x="5" y="14" width="1" height="1" fill="#f2e2c4"/>
<rect x="6" y="14" width="1" height="1" fill="#12120f"/>
<rect x="7" y="14" width="2" height="1" fill="#0d0d0c"/>
<rect x="9" y="14" width="4" height="1" fill="#7fd8cc"/>
<rect x="13" y="14" width="2" height="1" fill="#0d0d0c"/>
<rect x="15" y="14" width="1" height="1" fill="#12120f"/>
<rect x="16" y="14" width="1" height="1" fill="#f2e2c4"/>
<rect x="17" y="14" width="1" height="1" fill="#cdb894"/>
<rect x="18" y="14" width="1" height="1" fill="#12120f"/>
<rect x="3" y="15" width="1" height="1" fill="#12120f"/>
<rect x="4" y="15" width="1" height="1" fill="#fff8e8"/>
<rect x="5" y="15" width="1" height="1" fill="#f2e2c4"/>
<rect x="6" y="15" width="10" height="1" fill="#12120f"/>
<rect x="16" y="15" width="1" height="1" fill="#f2e2c4"/>
<rect x="17" y="15" width="1" height="1" fill="#cdb894"/>
<rect x="18" y="15" width="1" height="1" fill="#12120f"/>
<rect x="3" y="16" width="1" height="1" fill="#12120f"/>
<rect x="4" y="16" width="1" height="1" fill="#fff8e8"/>
<rect x="5" y="16" width="12" height="1" fill="#f2e2c4"/>
<rect x="17" y="16" width="1" height="1" fill="#cdb894"/>
<rect x="18" y="16" width="1" height="1" fill="#12120f"/>
<rect x="3" y="17" width="1" height="1" fill="#12120f"/>
<rect x="4" y="17" width="1" height="1" fill="#cdb894"/>
<rect x="5" y="17" width="8" height="1" fill="#f2e2c4"/>
<rect x="13" y="17" width="1" height="1" fill="#ffb000"/>
<rect x="14" y="17" width="1" height="1" fill="#ff3333"/>
<rect x="15" y="17" width="1" height="1" fill="#f2e2c4"/>
<rect x="16" y="17" width="1" height="1" fill="#cdb894"/>
<rect x="17" y="17" width="1" height="1" fill="#a08a60"/>
<rect x="18" y="17" width="1" height="1" fill="#12120f"/>
<rect x="3" y="18" width="1" height="1" fill="#12120f"/>
<rect x="4" y="18" width="13" height="1" fill="#cdb894"/>
<rect x="17" y="18" width="1" height="1" fill="#a08a60"/>
<rect x="18" y="18" width="1" height="1" fill="#12120f"/>
<rect x="4" y="19" width="14" height="1" fill="#12120f"/>
<rect x="5" y="20" width="3" height="1" fill="#12120f"/>
<rect x="14" y="20" width="3" height="1" fill="#12120f"/>
<rect x="5" y="21" width="3" height="1" fill="#12120f"/>
<rect x="14" y="21" width="3" height="1" fill="#12120f"/>

</svg>